<?xml version="1.0" encoding="utf-8" standalone="no"?>
<!DOCTYPE svg PUBLIC "-//W3C//DTD SVG 1.1//EN"
  "http://www.w3.org/Graphics/SVG/1.1/DTD/svg11.dtd">
<svg xmlns:xlink="http://www.w3.org/1999/xlink" width="432pt" height="288pt" viewBox="0 0 432 288" xmlns="http://www.w3.org/2000/svg" version="1.1">
 <metadata>
  <rdf:RDF xmlns:dc="http://purl.org/dc/elements/1.1/" xmlns:cc="http://creativecommons.org/ns#" xmlns:rdf="http://www.w3.org/1999/02/22-rdf-syntax-ns#">
   <cc:Work>
    <dc:type rdf:resource="http://purl.org/dc/dcmitype/StillImage"/>
    <dc:date>2022-10-23T19:36:12.449887</dc:date>
    <dc:format>image/svg+xml</dc:format>
    <dc:creator>
     <cc:Agent>
      <dc:title>Matplotlib v3.5.2, https://matplotlib.org/</dc:title>
     </cc:Agent>
    </dc:creator>
   </cc:Work>
  </rdf:RDF>
 </metadata>
 <defs>
  <style type="text/css">*{stroke-linejoin: round; stroke-linecap: butt}</style>
 </defs>
 <g id="figure_1">
  <g id="patch_1">
   <path d="M 0 288 
L 432 288 
L 432 0 
L 0 0 
L 0 288 
z
" style="fill: none"/>
  </g>
  <g id="axes_1">
   <g id="patch_2">
    <path d="M 54 252 
L 388.8 252 
L 388.8 34.56 
L 54 34.56 
z
" style="fill: #ffffff"/>
   </g>
   <g id="patch_3">
    <path d="M 100.170423 252 
L 134.346843 252 
L 134.346843 249.493668 
L 100.170423 249.493668 
z
" clip-path="url(#p4a393c9d07)" style="fill: #1f77b4; opacity: 0.5"/>
   </g>
   <g id="patch_4">
    <path d="M 134.346852 252 
L 168.523272 252 
L 168.523272 236.962006 
L 134.346852 236.962006 
z
" clip-path="url(#p4a393c9d07)" style="fill: #1f77b4; opacity: 0.5"/>
   </g>
   <g id="patch_5">
    <path d="M 168.523281 252 
L 202.69971 252 
L 202.69971 235.082256 
L 168.523281 235.082256 
z
" clip-path="url(#p4a393c9d07)" style="fill: #1f77b4; opacity: 0.5"/>
   </g>
   <g id="patch_6">
    <path d="M 202.699701 252 
L 236.876121 252 
L 236.876121 236.962006 
L 202.699701 236.962006 
z
" clip-path="url(#p4a393c9d07)" style="fill: #1f77b4; opacity: 0.5"/>
   </g>
   <g id="patch_7">
    <path d="M 236.876121 252 
L 271.05254 252 
L 271.05254 237.275297 
L 236.876121 237.275297 
z
" clip-path="url(#p4a393c9d07)" style="fill: #1f77b4; opacity: 0.5"/>
   </g>
   <g id="patch_8">
    <path d="M 271.052559 252 
L 305.228997 252 
L 305.228997 241.034796 
L 271.052559 241.034796 
z
" clip-path="url(#p4a393c9d07)" style="fill: #1f77b4; opacity: 0.5"/>
   </g>
   <g id="patch_9">
    <path d="M 305.228979 252 
L 339.405398 252 
L 339.405398 234.142382 
L 305.228979 234.142382 
z
" clip-path="url(#p4a393c9d07)" style="fill: #1f77b4; opacity: 0.5"/>
   </g>
   <g id="patch_10">
    <path d="M 339.405398 252 
L 373.581818 252 
L 373.581818 99.427015 
L 339.405398 99.427015 
z
" clip-path="url(#p4a393c9d07)" style="fill: #1f77b4; opacity: 0.5"/>
   </g>
   <g id="patch_11">
    <path d="M 69.218182 252 
L 107.263636 252 
L 107.263636 249.180376 
L 69.218182 249.180376 
z
" clip-path="url(#p4a393c9d07)" style="fill: #ff7f0e; opacity: 0.5"/>
   </g>
   <g id="patch_12">
    <path d="M 107.263636 252 
L 145.309091 252 
L 145.309091 249.806959 
L 107.263636 249.806959 
z
" clip-path="url(#p4a393c9d07)" style="fill: #ff7f0e; opacity: 0.5"/>
   </g>
   <g id="patch_13">
    <path d="M 145.309091 252 
L 183.354545 252 
L 183.354545 248.553793 
L 145.309091 248.553793 
z
" clip-path="url(#p4a393c9d07)" style="fill: #ff7f0e; opacity: 0.5"/>
   </g>
   <g id="patch_14">
    <path d="M 183.354536 252 
L 221.4 252 
L 221.4 247.300627 
L 183.354536 247.300627 
z
" clip-path="url(#p4a393c9d07)" style="fill: #ff7f0e; opacity: 0.5"/>
   </g>
   <g id="patch_15">
    <path d="M 221.4 252 
L 259.445464 252 
L 259.445464 245.420877 
L 221.4 245.420877 
z
" clip-path="url(#p4a393c9d07)" style="fill: #ff7f0e; opacity: 0.5"/>
   </g>
   <g id="patch_16">
    <path d="M 259.445464 252 
L 297.490909 252 
L 297.490909 242.287962 
L 259.445464 242.287962 
z
" clip-path="url(#p4a393c9d07)" style="fill: #ff7f0e; opacity: 0.5"/>
   </g>
   <g id="patch_17">
    <path d="M 297.490891 252 
L 335.536336 252 
L 335.536336 242.914545 
L 297.490891 242.914545 
z
" clip-path="url(#p4a393c9d07)" style="fill: #ff7f0e; opacity: 0.5"/>
   </g>
   <g id="patch_18">
    <path d="M 335.536354 252 
L 373.581818 252 
L 373.581818 44.914286 
L 335.536354 44.914286 
z
" clip-path="url(#p4a393c9d07)" style="fill: #ff7f0e; opacity: 0.5"/>
   </g>
   <g id="patch_19">
    <path d="M 136.28136 252 
L 165.943912 252 
L 165.943912 249.493668 
L 136.28136 249.493668 
z
" clip-path="url(#p4a393c9d07)" style="fill: #2ca02c; opacity: 0.5"/>
   </g>
   <g id="patch_20">
    <path d="M 165.943931 252 
L 195.606487 252 
L 195.606487 240.721504 
L 165.943931 240.721504 
z
" clip-path="url(#p4a393c9d07)" style="fill: #2ca02c; opacity: 0.5"/>
   </g>
   <g id="patch_21">
    <path d="M 195.606478 252 
L 225.269044 252 
L 225.269044 241.348087 
L 195.606478 241.348087 
z
" clip-path="url(#p4a393c9d07)" style="fill: #2ca02c; opacity: 0.5"/>
   </g>
   <g id="patch_22">
    <path d="M 225.269044 252 
L 254.931591 252 
L 254.931591 236.962006 
L 225.269044 236.962006 
z
" clip-path="url(#p4a393c9d07)" style="fill: #2ca02c; opacity: 0.5"/>
   </g>
   <g id="patch_23">
    <path d="M 254.931591 252 
L 284.594139 252 
L 284.594139 234.768965 
L 254.931591 234.768965 
z
" clip-path="url(#p4a393c9d07)" style="fill: #2ca02c; opacity: 0.5"/>
   </g>
   <g id="patch_24">
    <path d="M 284.594139 252 
L 314.256705 252 
L 314.256705 235.395548 
L 284.594139 235.395548 
z
" clip-path="url(#p4a393c9d07)" style="fill: #2ca02c; opacity: 0.5"/>
   </g>
   <g id="patch_25">
    <path d="M 314.256723 252 
L 343.919289 252 
L 343.919289 227.876551 
L 314.256723 227.876551 
z
" clip-path="url(#p4a393c9d07)" style="fill: #2ca02c; opacity: 0.5"/>
   </g>
   <g id="patch_26">
    <path d="M 343.919271 252 
L 373.581818 252 
L 373.581818 103.813097 
L 343.919271 103.813097 
z
" clip-path="url(#p4a393c9d07)" style="fill: #2ca02c; opacity: 0.5"/>
   </g>
   <g id="patch_27">
    <path d="M 115.646543 252 
L 147.88846 252 
L 147.88846 246.674044 
L 115.646543 246.674044 
z
" clip-path="url(#p4a393c9d07)" style="fill: #d62728; opacity: 0.5"/>
   </g>
   <g id="patch_28">
    <path d="M 147.88845 252 
L 180.130358 252 
L 180.130358 245.107586 
L 147.88845 245.107586 
z
" clip-path="url(#p4a393c9d07)" style="fill: #d62728; opacity: 0.5"/>
   </g>
   <g id="patch_29">
    <path d="M 180.130358 252 
L 212.372274 252 
L 212.372274 241.348087 
L 180.130358 241.348087 
z
" clip-path="url(#p4a393c9d07)" style="fill: #d62728; opacity: 0.5"/>
   </g>
   <g id="patch_30">
    <path d="M 212.372265 252 
L 244.614172 252 
L 244.614172 238.528463 
L 212.372265 238.528463 
z
" clip-path="url(#p4a393c9d07)" style="fill: #d62728; opacity: 0.5"/>
   </g>
   <g id="patch_31">
    <path d="M 244.61419 252 
L 276.856088 252 
L 276.856088 240.094921 
L 244.61419 240.094921 
z
" clip-path="url(#p4a393c9d07)" style="fill: #d62728; opacity: 0.5"/>
   </g>
   <g id="patch_32">
    <path d="M 276.856106 252 
L 309.098023 252 
L 309.098023 237.588589 
L 276.856106 237.588589 
z
" clip-path="url(#p4a393c9d07)" style="fill: #d62728; opacity: 0.5"/>
   </g>
   <g id="patch_33">
    <path d="M 309.098004 252 
L 341.339902 252 
L 341.339902 236.962006 
L 309.098004 236.962006 
z
" clip-path="url(#p4a393c9d07)" style="fill: #d62728; opacity: 0.5"/>
   </g>
   <g id="patch_34">
    <path d="M 341.339902 252 
L 373.581818 252 
L 373.581818 84.075729 
L 341.339902 84.075729 
z
" clip-path="url(#p4a393c9d07)" style="fill: #d62728; opacity: 0.5"/>
   </g>
   <g id="patch_35">
    <path d="M 110.487824 252 
L 143.374569 252 
L 143.374569 248.867085 
L 110.487824 248.867085 
z
" clip-path="url(#p4a393c9d07)" style="fill: #9467bd; opacity: 0.5"/>
   </g>
   <g id="patch_36">
    <path d="M 143.374569 252 
L 176.261323 252 
L 176.261323 247.300627 
L 143.374569 247.300627 
z
" clip-path="url(#p4a393c9d07)" style="fill: #9467bd; opacity: 0.5"/>
   </g>
   <g id="patch_37">
    <path d="M 176.261314 252 
L 209.148067 252 
L 209.148067 241.348087 
L 176.261314 241.348087 
z
" clip-path="url(#p4a393c9d07)" style="fill: #9467bd; opacity: 0.5"/>
   </g>
   <g id="patch_38">
    <path d="M 209.148086 252 
L 242.03484 252 
L 242.03484 243.541128 
L 209.148086 243.541128 
z
" clip-path="url(#p4a393c9d07)" style="fill: #9467bd; opacity: 0.5"/>
   </g>
   <g id="patch_39">
    <path d="M 242.034803 252 
L 274.921547 252 
L 274.921547 239.468338 
L 242.034803 239.468338 
z
" clip-path="url(#p4a393c9d07)" style="fill: #9467bd; opacity: 0.5"/>
   </g>
   <g id="patch_40">
    <path d="M 274.921566 252 
L 307.808329 252 
L 307.808329 233.515799 
L 274.921566 233.515799 
z
" clip-path="url(#p4a393c9d07)" style="fill: #9467bd; opacity: 0.5"/>
   </g>
   <g id="patch_41">
    <path d="M 307.808329 252 
L 340.695074 252 
L 340.695074 226.936676 
L 307.808329 226.936676 
z
" clip-path="url(#p4a393c9d07)" style="fill: #9467bd; opacity: 0.5"/>
   </g>
   <g id="patch_42">
    <path d="M 340.695055 252 
L 373.5818 252 
L 373.5818 89.401686 
L 340.695055 89.401686 
z
" clip-path="url(#p4a393c9d07)" style="fill: #9467bd; opacity: 0.5"/>
   </g>
   <g id="patch_43">
    <path d="M 146.598766 252 
L 174.971648 252 
L 174.971648 248.240501 
L 146.598766 248.240501 
z
" clip-path="url(#p4a393c9d07)" style="fill: #8c564b; opacity: 0.5"/>
   </g>
   <g id="patch_44">
    <path d="M 174.971638 252 
L 203.34452 252 
L 203.34452 245.420877 
L 174.971638 245.420877 
z
" clip-path="url(#p4a393c9d07)" style="fill: #8c564b; opacity: 0.5"/>
   </g>
   <g id="patch_45">
    <path d="M 203.344529 252 
L 231.717401 252 
L 231.717401 240.408213 
L 203.344529 240.408213 
z
" clip-path="url(#p4a393c9d07)" style="fill: #8c564b; opacity: 0.5"/>
   </g>
   <g id="patch_46">
    <path d="M 231.717401 252 
L 260.090292 252 
L 260.090292 236.648714 
L 231.717401 236.648714 
z
" clip-path="url(#p4a393c9d07)" style="fill: #8c564b; opacity: 0.5"/>
   </g>
   <g id="patch_47">
    <path d="M 260.090292 252 
L 288.463183 252 
L 288.463183 236.335423 
L 260.090292 236.335423 
z
" clip-path="url(#p4a393c9d07)" style="fill: #8c564b; opacity: 0.5"/>
   </g>
   <g id="patch_48">
    <path d="M 288.463183 252 
L 316.836055 252 
L 316.836055 236.022131 
L 288.463183 236.022131 
z
" clip-path="url(#p4a393c9d07)" style="fill: #8c564b; opacity: 0.5"/>
   </g>
   <g id="patch_49">
    <path d="M 316.836037 252 
L 345.208909 252 
L 345.208909 229.129717 
L 316.836037 229.129717 
z
" clip-path="url(#p4a393c9d07)" style="fill: #8c564b; opacity: 0.5"/>
   </g>
   <g id="patch_50">
    <path d="M 345.208927 252 
L 373.581818 252 
L 373.581818 98.173849 
L 345.208927 98.173849 
z
" clip-path="url(#p4a393c9d07)" style="fill: #8c564b; opacity: 0.5"/>
   </g>
   <g id="patch_51">
    <path d="M 100.170423 252 
L 134.346843 252 
L 134.346843 249.180376 
L 100.170423 249.180376 
z
" clip-path="url(#p4a393c9d07)" style="fill: #e377c2; opacity: 0.5"/>
   </g>
   <g id="patch_52">
    <path d="M 134.346852 252 
L 168.523272 252 
L 168.523272 244.794294 
L 134.346852 244.794294 
z
" clip-path="url(#p4a393c9d07)" style="fill: #e377c2; opacity: 0.5"/>
   </g>
   <g id="patch_53">
    <path d="M 168.523281 252 
L 202.69971 252 
L 202.69971 240.094921 
L 168.523281 240.094921 
z
" clip-path="url(#p4a393c9d07)" style="fill: #e377c2; opacity: 0.5"/>
   </g>
   <g id="patch_54">
    <path d="M 202.699701 252 
L 236.876121 252 
L 236.876121 237.275297 
L 202.699701 237.275297 
z
" clip-path="url(#p4a393c9d07)" style="fill: #e377c2; opacity: 0.5"/>
   </g>
   <g id="patch_55">
    <path d="M 236.876121 252 
L 271.05254 252 
L 271.05254 237.90188 
L 236.876121 237.90188 
z
" clip-path="url(#p4a393c9d07)" style="fill: #e377c2; opacity: 0.5"/>
   </g>
   <g id="patch_56">
    <path d="M 271.052559 252 
L 305.228997 252 
L 305.228997 241.661379 
L 271.052559 241.661379 
z
" clip-path="url(#p4a393c9d07)" style="fill: #e377c2; opacity: 0.5"/>
   </g>
   <g id="patch_57">
    <path d="M 305.228979 252 
L 339.405398 252 
L 339.405398 232.262632 
L 305.228979 232.262632 
z
" clip-path="url(#p4a393c9d07)" style="fill: #e377c2; opacity: 0.5"/>
   </g>
   <g id="patch_58">
    <path d="M 339.405398 252 
L 373.581818 252 
L 373.581818 87.208645 
L 339.405398 87.208645 
z
" clip-path="url(#p4a393c9d07)" style="fill: #e377c2; opacity: 0.5"/>
   </g>
   <g id="patch_59">
    <path d="M 120.805244 252 
L 152.402314 252 
L 152.402314 248.240501 
L 120.805244 248.240501 
z
" clip-path="url(#p4a393c9d07)" style="fill: #7f7f7f; opacity: 0.5"/>
   </g>
   <g id="patch_60">
    <path d="M 152.402314 252 
L 183.999383 252 
L 183.999383 243.85442 
L 152.402314 243.85442 
z
" clip-path="url(#p4a393c9d07)" style="fill: #7f7f7f; opacity: 0.5"/>
   </g>
   <g id="patch_61">
    <path d="M 183.999383 252 
L 215.596462 252 
L 215.596462 246.047461 
L 183.999383 246.047461 
z
" clip-path="url(#p4a393c9d07)" style="fill: #7f7f7f; opacity: 0.5"/>
   </g>
   <g id="patch_62">
    <path d="M 215.596471 252 
L 247.19354 252 
L 247.19354 243.85442 
L 215.596471 243.85442 
z
" clip-path="url(#p4a393c9d07)" style="fill: #7f7f7f; opacity: 0.5"/>
   </g>
   <g id="patch_63">
    <path d="M 247.19354 252 
L 278.79061 252 
L 278.79061 240.094921 
L 247.19354 240.094921 
z
" clip-path="url(#p4a393c9d07)" style="fill: #7f7f7f; opacity: 0.5"/>
   </g>
   <g id="patch_64">
    <path d="M 278.79061 252 
L 310.387679 252 
L 310.387679 238.215172 
L 278.79061 238.215172 
z
" clip-path="url(#p4a393c9d07)" style="fill: #7f7f7f; opacity: 0.5"/>
   </g>
   <g id="patch_65">
    <path d="M 310.387679 252 
L 341.984749 252 
L 341.984749 232.262632 
L 310.387679 232.262632 
z
" clip-path="url(#p4a393c9d07)" style="fill: #7f7f7f; opacity: 0.5"/>
   </g>
   <g id="patch_66">
    <path d="M 341.984749 252 
L 373.581818 252 
L 373.581818 77.809898 
L 341.984749 77.809898 
z
" clip-path="url(#p4a393c9d07)" style="fill: #7f7f7f; opacity: 0.5"/>
   </g>
   <g id="patch_67">
    <path d="M 89.853005 252 
L 125.319107 252 
L 125.319107 249.806959 
L 89.853005 249.806959 
z
" clip-path="url(#p4a393c9d07)" style="fill: #bcbd22; opacity: 0.5"/>
   </g>
   <g id="patch_68">
    <path d="M 125.319107 252 
L 160.785211 252 
L 160.785211 246.047461 
L 125.319107 246.047461 
z
" clip-path="url(#p4a393c9d07)" style="fill: #bcbd22; opacity: 0.5"/>
   </g>
   <g id="patch_69">
    <path d="M 160.785211 252 
L 196.251306 252 
L 196.251306 242.287962 
L 160.785211 242.287962 
z
" clip-path="url(#p4a393c9d07)" style="fill: #bcbd22; opacity: 0.5"/>
   </g>
   <g id="patch_70">
    <path d="M 196.251306 252 
L 231.717401 252 
L 231.717401 235.082256 
L 196.251306 235.082256 
z
" clip-path="url(#p4a393c9d07)" style="fill: #bcbd22; opacity: 0.5"/>
   </g>
   <g id="patch_71">
    <path d="M 231.717401 252 
L 267.183515 252 
L 267.183515 231.009466 
L 231.717401 231.009466 
z
" clip-path="url(#p4a393c9d07)" style="fill: #bcbd22; opacity: 0.5"/>
   </g>
   <g id="patch_72">
    <path d="M 267.183496 252 
L 302.649591 252 
L 302.649591 235.708839 
L 267.183496 235.708839 
z
" clip-path="url(#p4a393c9d07)" style="fill: #bcbd22; opacity: 0.5"/>
   </g>
   <g id="patch_73">
    <path d="M 302.64961 252 
L 338.115723 252 
L 338.115723 237.90188 
L 302.64961 237.90188 
z
" clip-path="url(#p4a393c9d07)" style="fill: #bcbd22; opacity: 0.5"/>
   </g>
   <g id="patch_74">
    <path d="M 338.115723 252 
L 373.581818 252 
L 373.581818 92.534601 
L 338.115723 92.534601 
z
" clip-path="url(#p4a393c9d07)" style="fill: #bcbd22; opacity: 0.5"/>
   </g>
   <g id="patch_75">
    <path d="M 100.170423 252 
L 134.346843 252 
L 134.346843 248.240501 
L 100.170423 248.240501 
z
" clip-path="url(#p4a393c9d07)" style="fill: #17becf; opacity: 0.5"/>
   </g>
   <g id="patch_76">
    <path d="M 134.346852 252 
L 168.523272 252 
L 168.523272 246.674044 
L 134.346852 246.674044 
z
" clip-path="url(#p4a393c9d07)" style="fill: #17becf; opacity: 0.5"/>
   </g>
   <g id="patch_77">
    <path d="M 168.523281 252 
L 202.69971 252 
L 202.69971 243.227837 
L 168.523281 243.227837 
z
" clip-path="url(#p4a393c9d07)" style="fill: #17becf; opacity: 0.5"/>
   </g>
   <g id="patch_78">
    <path d="M 202.699701 252 
L 236.876121 252 
L 236.876121 241.661379 
L 202.699701 241.661379 
z
" clip-path="url(#p4a393c9d07)" style="fill: #17becf; opacity: 0.5"/>
   </g>
   <g id="patch_79">
    <path d="M 236.876121 252 
L 271.05254 252 
L 271.05254 239.468338 
L 236.876121 239.468338 
z
" clip-path="url(#p4a393c9d07)" style="fill: #17becf; opacity: 0.5"/>
   </g>
   <g id="patch_80">
    <path d="M 271.052559 252 
L 305.228997 252 
L 305.228997 241.348087 
L 271.052559 241.348087 
z
" clip-path="url(#p4a393c9d07)" style="fill: #17becf; opacity: 0.5"/>
   </g>
   <g id="patch_81">
    <path d="M 305.228979 252 
L 339.405398 252 
L 339.405398 234.142382 
L 305.228979 234.142382 
z
" clip-path="url(#p4a393c9d07)" style="fill: #17becf; opacity: 0.5"/>
   </g>
   <g id="patch_82">
    <path d="M 339.405398 252 
L 373.581818 252 
L 373.581818 75.616858 
L 339.405398 75.616858 
z
" clip-path="url(#p4a393c9d07)" style="fill: #17becf; opacity: 0.5"/>
   </g>
   <g id="matplotlib.axis_1">
    <g id="xtick_1">
     <g id="line2d_1">
      <defs>
       <path id="m1cb41bdf80" d="M 0 0 
L 0 3.5 
" style="stroke: #000000; stroke-width: 0.8"/>
      </defs>
      <g>
       <use xlink:href="#m1cb41bdf80" x="64.059481" y="252" style="stroke: #000000; stroke-width: 0.8"/>
      </g>
     </g>
     <g id="text_1">
      <!-- 0.0 -->
      <g transform="translate(56.107919 266.598437)scale(0.1 -0.1)">
       <defs>
        <path id="DejaVuSans-30" d="M 2034 4250 
Q 1547 4250 1301 3770 
Q 1056 3291 1056 2328 
Q 1056 1369 1301 889 
Q 1547 409 2034 409 
Q 2525 409 2770 889 
Q 3016 1369 3016 2328 
Q 3016 3291 2770 3770 
Q 2525 4250 2034 4250 
z
M 2034 4750 
Q 2819 4750 3233 4129 
Q 3647 3509 3647 2328 
Q 3647 1150 3233 529 
Q 2819 -91 2034 -91 
Q 1250 -91 836 529 
Q 422 1150 422 2328 
Q 422 3509 836 4129 
Q 1250 4750 2034 4750 
z
" transform="scale(0.015625)"/>
        <path id="DejaVuSans-2e" d="M 684 794 
L 1344 794 
L 1344 0 
L 684 0 
L 684 794 
z
" transform="scale(0.015625)"/>
       </defs>
       <use xlink:href="#DejaVuSans-30"/>
       <use xlink:href="#DejaVuSans-2e" x="63.623047"/>
       <use xlink:href="#DejaVuSans-30" x="95.410156"/>
      </g>
     </g>
    </g>
    <g id="xtick_2">
     <g id="line2d_2">
      <g>
       <use xlink:href="#m1cb41bdf80" x="125.963949" y="252" style="stroke: #000000; stroke-width: 0.8"/>
      </g>
     </g>
     <g id="text_2">
      <!-- 0.2 -->
      <g transform="translate(118.012386 266.598437)scale(0.1 -0.1)">
       <defs>
        <path id="DejaVuSans-32" d="M 1228 531 
L 3431 531 
L 3431 0 
L 469 0 
L 469 531 
Q 828 903 1448 1529 
Q 2069 2156 2228 2338 
Q 2531 2678 2651 2914 
Q 2772 3150 2772 3378 
Q 2772 3750 2511 3984 
Q 2250 4219 1831 4219 
Q 1534 4219 1204 4116 
Q 875 4013 500 3803 
L 500 4441 
Q 881 4594 1212 4672 
Q 1544 4750 1819 4750 
Q 2544 4750 2975 4387 
Q 3406 4025 3406 3419 
Q 3406 3131 3298 2873 
Q 3191 2616 2906 2266 
Q 2828 2175 2409 1742 
Q 1991 1309 1228 531 
z
" transform="scale(0.015625)"/>
       </defs>
       <use xlink:href="#DejaVuSans-30"/>
       <use xlink:href="#DejaVuSans-2e" x="63.623047"/>
       <use xlink:href="#DejaVuSans-32" x="95.410156"/>
      </g>
     </g>
    </g>
    <g id="xtick_3">
     <g id="line2d_3">
      <g>
       <use xlink:href="#m1cb41bdf80" x="187.868416" y="252" style="stroke: #000000; stroke-width: 0.8"/>
      </g>
     </g>
     <g id="text_3">
      <!-- 0.4 -->
      <g transform="translate(179.916853 266.598437)scale(0.1 -0.1)">
       <defs>
        <path id="DejaVuSans-34" d="M 2419 4116 
L 825 1625 
L 2419 1625 
L 2419 4116 
z
M 2253 4666 
L 3047 4666 
L 3047 1625 
L 3713 1625 
L 3713 1100 
L 3047 1100 
L 3047 0 
L 2419 0 
L 2419 1100 
L 313 1100 
L 313 1709 
L 2253 4666 
z
" transform="scale(0.015625)"/>
       </defs>
       <use xlink:href="#DejaVuSans-30"/>
       <use xlink:href="#DejaVuSans-2e" x="63.623047"/>
       <use xlink:href="#DejaVuSans-34" x="95.410156"/>
      </g>
     </g>
    </g>
    <g id="xtick_4">
     <g id="line2d_4">
      <g>
       <use xlink:href="#m1cb41bdf80" x="249.772883" y="252" style="stroke: #000000; stroke-width: 0.8"/>
      </g>
     </g>
     <g id="text_4">
      <!-- 0.6 -->
      <g transform="translate(241.821321 266.598437)scale(0.1 -0.1)">
       <defs>
        <path id="DejaVuSans-36" d="M 2113 2584 
Q 1688 2584 1439 2293 
Q 1191 2003 1191 1497 
Q 1191 994 1439 701 
Q 1688 409 2113 409 
Q 2538 409 2786 701 
Q 3034 994 3034 1497 
Q 3034 2003 2786 2293 
Q 2538 2584 2113 2584 
z
M 3366 4563 
L 3366 3988 
Q 3128 4100 2886 4159 
Q 2644 4219 2406 4219 
Q 1781 4219 1451 3797 
Q 1122 3375 1075 2522 
Q 1259 2794 1537 2939 
Q 1816 3084 2150 3084 
Q 2853 3084 3261 2657 
Q 3669 2231 3669 1497 
Q 3669 778 3244 343 
Q 2819 -91 2113 -91 
Q 1303 -91 875 529 
Q 447 1150 447 2328 
Q 447 3434 972 4092 
Q 1497 4750 2381 4750 
Q 2619 4750 2861 4703 
Q 3103 4656 3366 4563 
z
" transform="scale(0.015625)"/>
       </defs>
       <use xlink:href="#DejaVuSans-30"/>
       <use xlink:href="#DejaVuSans-2e" x="63.623047"/>
       <use xlink:href="#DejaVuSans-36" x="95.410156"/>
      </g>
     </g>
    </g>
    <g id="xtick_5">
     <g id="line2d_5">
      <g>
       <use xlink:href="#m1cb41bdf80" x="311.677351" y="252" style="stroke: #000000; stroke-width: 0.8"/>
      </g>
     </g>
     <g id="text_5">
      <!-- 0.8 -->
      <g transform="translate(303.725788 266.598437)scale(0.1 -0.1)">
       <defs>
        <path id="DejaVuSans-38" d="M 2034 2216 
Q 1584 2216 1326 1975 
Q 1069 1734 1069 1313 
Q 1069 891 1326 650 
Q 1584 409 2034 409 
Q 2484 409 2743 651 
Q 3003 894 3003 1313 
Q 3003 1734 2745 1975 
Q 2488 2216 2034 2216 
z
M 1403 2484 
Q 997 2584 770 2862 
Q 544 3141 544 3541 
Q 544 4100 942 4425 
Q 1341 4750 2034 4750 
Q 2731 4750 3128 4425 
Q 3525 4100 3525 3541 
Q 3525 3141 3298 2862 
Q 3072 2584 2669 2484 
Q 3125 2378 3379 2068 
Q 3634 1759 3634 1313 
Q 3634 634 3220 271 
Q 2806 -91 2034 -91 
Q 1263 -91 848 271 
Q 434 634 434 1313 
Q 434 1759 690 2068 
Q 947 2378 1403 2484 
z
M 1172 3481 
Q 1172 3119 1398 2916 
Q 1625 2713 2034 2713 
Q 2441 2713 2670 2916 
Q 2900 3119 2900 3481 
Q 2900 3844 2670 4047 
Q 2441 4250 2034 4250 
Q 1625 4250 1398 4047 
Q 1172 3844 1172 3481 
z
" transform="scale(0.015625)"/>
       </defs>
       <use xlink:href="#DejaVuSans-30"/>
       <use xlink:href="#DejaVuSans-2e" x="63.623047"/>
       <use xlink:href="#DejaVuSans-38" x="95.410156"/>
      </g>
     </g>
    </g>
    <g id="xtick_6">
     <g id="line2d_6">
      <g>
       <use xlink:href="#m1cb41bdf80" x="373.581818" y="252" style="stroke: #000000; stroke-width: 0.8"/>
      </g>
     </g>
     <g id="text_6">
      <!-- 1.0 -->
      <g transform="translate(365.630256 266.598437)scale(0.1 -0.1)">
       <defs>
        <path id="DejaVuSans-31" d="M 794 531 
L 1825 531 
L 1825 4091 
L 703 3866 
L 703 4441 
L 1819 4666 
L 2450 4666 
L 2450 531 
L 3481 531 
L 3481 0 
L 794 0 
L 794 531 
z
" transform="scale(0.015625)"/>
       </defs>
       <use xlink:href="#DejaVuSans-31"/>
       <use xlink:href="#DejaVuSans-2e" x="63.623047"/>
       <use xlink:href="#DejaVuSans-30" x="95.410156"/>
      </g>
     </g>
    </g>
    <g id="text_7">
     <!-- Probabilities -->
     <g transform="translate(190.860156 280.276563)scale(0.1 -0.1)">
      <defs>
       <path id="DejaVuSans-50" d="M 1259 4147 
L 1259 2394 
L 2053 2394 
Q 2494 2394 2734 2622 
Q 2975 2850 2975 3272 
Q 2975 3691 2734 3919 
Q 2494 4147 2053 4147 
L 1259 4147 
z
M 628 4666 
L 2053 4666 
Q 2838 4666 3239 4311 
Q 3641 3956 3641 3272 
Q 3641 2581 3239 2228 
Q 2838 1875 2053 1875 
L 1259 1875 
L 1259 0 
L 628 0 
L 628 4666 
z
" transform="scale(0.015625)"/>
       <path id="DejaVuSans-72" d="M 2631 2963 
Q 2534 3019 2420 3045 
Q 2306 3072 2169 3072 
Q 1681 3072 1420 2755 
Q 1159 2438 1159 1844 
L 1159 0 
L 581 0 
L 581 3500 
L 1159 3500 
L 1159 2956 
Q 1341 3275 1631 3429 
Q 1922 3584 2338 3584 
Q 2397 3584 2469 3576 
Q 2541 3569 2628 3553 
L 2631 2963 
z
" transform="scale(0.015625)"/>
       <path id="DejaVuSans-6f" d="M 1959 3097 
Q 1497 3097 1228 2736 
Q 959 2375 959 1747 
Q 959 1119 1226 758 
Q 1494 397 1959 397 
Q 2419 397 2687 759 
Q 2956 1122 2956 1747 
Q 2956 2369 2687 2733 
Q 2419 3097 1959 3097 
z
M 1959 3584 
Q 2709 3584 3137 3096 
Q 3566 2609 3566 1747 
Q 3566 888 3137 398 
Q 2709 -91 1959 -91 
Q 1206 -91 779 398 
Q 353 888 353 1747 
Q 353 2609 779 3096 
Q 1206 3584 1959 3584 
z
" transform="scale(0.015625)"/>
       <path id="DejaVuSans-62" d="M 3116 1747 
Q 3116 2381 2855 2742 
Q 2594 3103 2138 3103 
Q 1681 3103 1420 2742 
Q 1159 2381 1159 1747 
Q 1159 1113 1420 752 
Q 1681 391 2138 391 
Q 2594 391 2855 752 
Q 3116 1113 3116 1747 
z
M 1159 2969 
Q 1341 3281 1617 3432 
Q 1894 3584 2278 3584 
Q 2916 3584 3314 3078 
Q 3713 2572 3713 1747 
Q 3713 922 3314 415 
Q 2916 -91 2278 -91 
Q 1894 -91 1617 61 
Q 1341 213 1159 525 
L 1159 0 
L 581 0 
L 581 4863 
L 1159 4863 
L 1159 2969 
z
" transform="scale(0.015625)"/>
       <path id="DejaVuSans-61" d="M 2194 1759 
Q 1497 1759 1228 1600 
Q 959 1441 959 1056 
Q 959 750 1161 570 
Q 1363 391 1709 391 
Q 2188 391 2477 730 
Q 2766 1069 2766 1631 
L 2766 1759 
L 2194 1759 
z
M 3341 1997 
L 3341 0 
L 2766 0 
L 2766 531 
Q 2569 213 2275 61 
Q 1981 -91 1556 -91 
Q 1019 -91 701 211 
Q 384 513 384 1019 
Q 384 1609 779 1909 
Q 1175 2209 1959 2209 
L 2766 2209 
L 2766 2266 
Q 2766 2663 2505 2880 
Q 2244 3097 1772 3097 
Q 1472 3097 1187 3025 
Q 903 2953 641 2809 
L 641 3341 
Q 956 3463 1253 3523 
Q 1550 3584 1831 3584 
Q 2591 3584 2966 3190 
Q 3341 2797 3341 1997 
z
" transform="scale(0.015625)"/>
       <path id="DejaVuSans-69" d="M 603 3500 
L 1178 3500 
L 1178 0 
L 603 0 
L 603 3500 
z
M 603 4863 
L 1178 4863 
L 1178 4134 
L 603 4134 
L 603 4863 
z
" transform="scale(0.015625)"/>
       <path id="DejaVuSans-6c" d="M 603 4863 
L 1178 4863 
L 1178 0 
L 603 0 
L 603 4863 
z
" transform="scale(0.015625)"/>
       <path id="DejaVuSans-74" d="M 1172 4494 
L 1172 3500 
L 2356 3500 
L 2356 3053 
L 1172 3053 
L 1172 1153 
Q 1172 725 1289 603 
Q 1406 481 1766 481 
L 2356 481 
L 2356 0 
L 1766 0 
Q 1100 0 847 248 
Q 594 497 594 1153 
L 594 3053 
L 172 3053 
L 172 3500 
L 594 3500 
L 594 4494 
L 1172 4494 
z
" transform="scale(0.015625)"/>
       <path id="DejaVuSans-65" d="M 3597 1894 
L 3597 1613 
L 953 1613 
Q 991 1019 1311 708 
Q 1631 397 2203 397 
Q 2534 397 2845 478 
Q 3156 559 3463 722 
L 3463 178 
Q 3153 47 2828 -22 
Q 2503 -91 2169 -91 
Q 1331 -91 842 396 
Q 353 884 353 1716 
Q 353 2575 817 3079 
Q 1281 3584 2069 3584 
Q 2775 3584 3186 3129 
Q 3597 2675 3597 1894 
z
M 3022 2063 
Q 3016 2534 2758 2815 
Q 2500 3097 2075 3097 
Q 1594 3097 1305 2825 
Q 1016 2553 972 2059 
L 3022 2063 
z
" transform="scale(0.015625)"/>
       <path id="DejaVuSans-73" d="M 2834 3397 
L 2834 2853 
Q 2591 2978 2328 3040 
Q 2066 3103 1784 3103 
Q 1356 3103 1142 2972 
Q 928 2841 928 2578 
Q 928 2378 1081 2264 
Q 1234 2150 1697 2047 
L 1894 2003 
Q 2506 1872 2764 1633 
Q 3022 1394 3022 966 
Q 3022 478 2636 193 
Q 2250 -91 1575 -91 
Q 1294 -91 989 -36 
Q 684 19 347 128 
L 347 722 
Q 666 556 975 473 
Q 1284 391 1588 391 
Q 1994 391 2212 530 
Q 2431 669 2431 922 
Q 2431 1156 2273 1281 
Q 2116 1406 1581 1522 
L 1381 1569 
Q 847 1681 609 1914 
Q 372 2147 372 2553 
Q 372 3047 722 3315 
Q 1072 3584 1716 3584 
Q 2034 3584 2315 3537 
Q 2597 3491 2834 3397 
z
" transform="scale(0.015625)"/>
      </defs>
      <use xlink:href="#DejaVuSans-50"/>
      <use xlink:href="#DejaVuSans-72" x="58.552734"/>
      <use xlink:href="#DejaVuSans-6f" x="97.416016"/>
      <use xlink:href="#DejaVuSans-62" x="158.597656"/>
      <use xlink:href="#DejaVuSans-61" x="222.074219"/>
      <use xlink:href="#DejaVuSans-62" x="283.353516"/>
      <use xlink:href="#DejaVuSans-69" x="346.830078"/>
      <use xlink:href="#DejaVuSans-6c" x="374.613281"/>
      <use xlink:href="#DejaVuSans-69" x="402.396484"/>
      <use xlink:href="#DejaVuSans-74" x="430.179688"/>
      <use xlink:href="#DejaVuSans-69" x="469.388672"/>
      <use xlink:href="#DejaVuSans-65" x="497.171875"/>
      <use xlink:href="#DejaVuSans-73" x="558.695312"/>
     </g>
    </g>
   </g>
   <g id="matplotlib.axis_2">
    <g id="ytick_1">
     <g id="line2d_7">
      <defs>
       <path id="md10bb534cb" d="M 0 0 
L -3.5 0 
" style="stroke: #000000; stroke-width: 0.8"/>
      </defs>
      <g>
       <use xlink:href="#md10bb534cb" x="54" y="252" style="stroke: #000000; stroke-width: 0.8"/>
      </g>
     </g>
     <g id="text_8">
      <!-- 0 -->
      <g transform="translate(40.6375 255.799219)scale(0.1 -0.1)">
       <use xlink:href="#DejaVuSans-30"/>
      </g>
     </g>
    </g>
    <g id="ytick_2">
     <g id="line2d_8">
      <g>
       <use xlink:href="#md10bb534cb" x="54" y="220.670845" style="stroke: #000000; stroke-width: 0.8"/>
      </g>
     </g>
     <g id="text_9">
      <!-- 100 -->
      <g transform="translate(27.9125 224.470064)scale(0.1 -0.1)">
       <use xlink:href="#DejaVuSans-31"/>
       <use xlink:href="#DejaVuSans-30" x="63.623047"/>
       <use xlink:href="#DejaVuSans-30" x="127.246094"/>
      </g>
     </g>
    </g>
    <g id="ytick_3">
     <g id="line2d_9">
      <g>
       <use xlink:href="#md10bb534cb" x="54" y="189.34169" style="stroke: #000000; stroke-width: 0.8"/>
      </g>
     </g>
     <g id="text_10">
      <!-- 200 -->
      <g transform="translate(27.9125 193.140909)scale(0.1 -0.1)">
       <use xlink:href="#DejaVuSans-32"/>
       <use xlink:href="#DejaVuSans-30" x="63.623047"/>
       <use xlink:href="#DejaVuSans-30" x="127.246094"/>
      </g>
     </g>
    </g>
    <g id="ytick_4">
     <g id="line2d_10">
      <g>
       <use xlink:href="#md10bb534cb" x="54" y="158.012535" style="stroke: #000000; stroke-width: 0.8"/>
      </g>
     </g>
     <g id="text_11">
      <!-- 300 -->
      <g transform="translate(27.9125 161.811754)scale(0.1 -0.1)">
       <defs>
        <path id="DejaVuSans-33" d="M 2597 2516 
Q 3050 2419 3304 2112 
Q 3559 1806 3559 1356 
Q 3559 666 3084 287 
Q 2609 -91 1734 -91 
Q 1441 -91 1130 -33 
Q 819 25 488 141 
L 488 750 
Q 750 597 1062 519 
Q 1375 441 1716 441 
Q 2309 441 2620 675 
Q 2931 909 2931 1356 
Q 2931 1769 2642 2001 
Q 2353 2234 1838 2234 
L 1294 2234 
L 1294 2753 
L 1863 2753 
Q 2328 2753 2575 2939 
Q 2822 3125 2822 3475 
Q 2822 3834 2567 4026 
Q 2313 4219 1838 4219 
Q 1578 4219 1281 4162 
Q 984 4106 628 3988 
L 628 4550 
Q 988 4650 1302 4700 
Q 1616 4750 1894 4750 
Q 2613 4750 3031 4423 
Q 3450 4097 3450 3541 
Q 3450 3153 3228 2886 
Q 3006 2619 2597 2516 
z
" transform="scale(0.015625)"/>
       </defs>
       <use xlink:href="#DejaVuSans-33"/>
       <use xlink:href="#DejaVuSans-30" x="63.623047"/>
       <use xlink:href="#DejaVuSans-30" x="127.246094"/>
      </g>
     </g>
    </g>
    <g id="ytick_5">
     <g id="line2d_11">
      <g>
       <use xlink:href="#md10bb534cb" x="54" y="126.68338" style="stroke: #000000; stroke-width: 0.8"/>
      </g>
     </g>
     <g id="text_12">
      <!-- 400 -->
      <g transform="translate(27.9125 130.482599)scale(0.1 -0.1)">
       <use xlink:href="#DejaVuSans-34"/>
       <use xlink:href="#DejaVuSans-30" x="63.623047"/>
       <use xlink:href="#DejaVuSans-30" x="127.246094"/>
      </g>
     </g>
    </g>
    <g id="ytick_6">
     <g id="line2d_12">
      <g>
       <use xlink:href="#md10bb534cb" x="54" y="95.354225" style="stroke: #000000; stroke-width: 0.8"/>
      </g>
     </g>
     <g id="text_13">
      <!-- 500 -->
      <g transform="translate(27.9125 99.153444)scale(0.1 -0.1)">
       <defs>
        <path id="DejaVuSans-35" d="M 691 4666 
L 3169 4666 
L 3169 4134 
L 1269 4134 
L 1269 2991 
Q 1406 3038 1543 3061 
Q 1681 3084 1819 3084 
Q 2600 3084 3056 2656 
Q 3513 2228 3513 1497 
Q 3513 744 3044 326 
Q 2575 -91 1722 -91 
Q 1428 -91 1123 -41 
Q 819 9 494 109 
L 494 744 
Q 775 591 1075 516 
Q 1375 441 1709 441 
Q 2250 441 2565 725 
Q 2881 1009 2881 1497 
Q 2881 1984 2565 2268 
Q 2250 2553 1709 2553 
Q 1456 2553 1204 2497 
Q 953 2441 691 2322 
L 691 4666 
z
" transform="scale(0.015625)"/>
       </defs>
       <use xlink:href="#DejaVuSans-35"/>
       <use xlink:href="#DejaVuSans-30" x="63.623047"/>
       <use xlink:href="#DejaVuSans-30" x="127.246094"/>
      </g>
     </g>
    </g>
    <g id="ytick_7">
     <g id="line2d_13">
      <g>
       <use xlink:href="#md10bb534cb" x="54" y="64.02507" style="stroke: #000000; stroke-width: 0.8"/>
      </g>
     </g>
     <g id="text_14">
      <!-- 600 -->
      <g transform="translate(27.9125 67.824289)scale(0.1 -0.1)">
       <use xlink:href="#DejaVuSans-36"/>
       <use xlink:href="#DejaVuSans-30" x="63.623047"/>
       <use xlink:href="#DejaVuSans-30" x="127.246094"/>
      </g>
     </g>
    </g>
    <g id="text_15">
     <!-- Observations -->
     <g transform="translate(21.832812 176.332344)rotate(-90)scale(0.1 -0.1)">
      <defs>
       <path id="DejaVuSans-4f" d="M 2522 4238 
Q 1834 4238 1429 3725 
Q 1025 3213 1025 2328 
Q 1025 1447 1429 934 
Q 1834 422 2522 422 
Q 3209 422 3611 934 
Q 4013 1447 4013 2328 
Q 4013 3213 3611 3725 
Q 3209 4238 2522 4238 
z
M 2522 4750 
Q 3503 4750 4090 4092 
Q 4678 3434 4678 2328 
Q 4678 1225 4090 567 
Q 3503 -91 2522 -91 
Q 1538 -91 948 565 
Q 359 1222 359 2328 
Q 359 3434 948 4092 
Q 1538 4750 2522 4750 
z
" transform="scale(0.015625)"/>
       <path id="DejaVuSans-76" d="M 191 3500 
L 800 3500 
L 1894 563 
L 2988 3500 
L 3597 3500 
L 2284 0 
L 1503 0 
L 191 3500 
z
" transform="scale(0.015625)"/>
       <path id="DejaVuSans-6e" d="M 3513 2113 
L 3513 0 
L 2938 0 
L 2938 2094 
Q 2938 2591 2744 2837 
Q 2550 3084 2163 3084 
Q 1697 3084 1428 2787 
Q 1159 2491 1159 1978 
L 1159 0 
L 581 0 
L 581 3500 
L 1159 3500 
L 1159 2956 
Q 1366 3272 1645 3428 
Q 1925 3584 2291 3584 
Q 2894 3584 3203 3211 
Q 3513 2838 3513 2113 
z
" transform="scale(0.015625)"/>
      </defs>
      <use xlink:href="#DejaVuSans-4f"/>
      <use xlink:href="#DejaVuSans-62" x="78.710938"/>
      <use xlink:href="#DejaVuSans-73" x="142.1875"/>
      <use xlink:href="#DejaVuSans-65" x="194.287109"/>
      <use xlink:href="#DejaVuSans-72" x="255.810547"/>
      <use xlink:href="#DejaVuSans-76" x="296.923828"/>
      <use xlink:href="#DejaVuSans-61" x="356.103516"/>
      <use xlink:href="#DejaVuSans-74" x="417.382812"/>
      <use xlink:href="#DejaVuSans-69" x="456.591797"/>
      <use xlink:href="#DejaVuSans-6f" x="484.375"/>
      <use xlink:href="#DejaVuSans-6e" x="545.556641"/>
      <use xlink:href="#DejaVuSans-73" x="608.935547"/>
     </g>
    </g>
   </g>
   <g id="patch_83">
    <path d="M 54 252 
L 54 34.56 
" style="fill: none; stroke: #000000; stroke-width: 0.8; stroke-linejoin: miter; stroke-linecap: square"/>
   </g>
   <g id="patch_84">
    <path d="M 388.8 252 
L 388.8 34.56 
" style="fill: none; stroke: #000000; stroke-width: 0.8; stroke-linejoin: miter; stroke-linecap: square"/>
   </g>
   <g id="patch_85">
    <path d="M 54 252 
L 388.8 252 
" style="fill: none; stroke: #000000; stroke-width: 0.8; stroke-linejoin: miter; stroke-linecap: square"/>
   </g>
   <g id="patch_86">
    <path d="M 54 34.56 
L 388.8 34.56 
" style="fill: none; stroke: #000000; stroke-width: 0.8; stroke-linejoin: miter; stroke-linecap: square"/>
   </g>
   <g id="text_16">
    <!-- Histogram Compound Graph when pixel probability equals0 -->
    <g transform="translate(41.826563 28.56)scale(0.12 -0.12)">
     <defs>
      <path id="DejaVuSans-48" d="M 628 4666 
L 1259 4666 
L 1259 2753 
L 3553 2753 
L 3553 4666 
L 4184 4666 
L 4184 0 
L 3553 0 
L 3553 2222 
L 1259 2222 
L 1259 0 
L 628 0 
L 628 4666 
z
" transform="scale(0.015625)"/>
      <path id="DejaVuSans-67" d="M 2906 1791 
Q 2906 2416 2648 2759 
Q 2391 3103 1925 3103 
Q 1463 3103 1205 2759 
Q 947 2416 947 1791 
Q 947 1169 1205 825 
Q 1463 481 1925 481 
Q 2391 481 2648 825 
Q 2906 1169 2906 1791 
z
M 3481 434 
Q 3481 -459 3084 -895 
Q 2688 -1331 1869 -1331 
Q 1566 -1331 1297 -1286 
Q 1028 -1241 775 -1147 
L 775 -588 
Q 1028 -725 1275 -790 
Q 1522 -856 1778 -856 
Q 2344 -856 2625 -561 
Q 2906 -266 2906 331 
L 2906 616 
Q 2728 306 2450 153 
Q 2172 0 1784 0 
Q 1141 0 747 490 
Q 353 981 353 1791 
Q 353 2603 747 3093 
Q 1141 3584 1784 3584 
Q 2172 3584 2450 3431 
Q 2728 3278 2906 2969 
L 2906 3500 
L 3481 3500 
L 3481 434 
z
" transform="scale(0.015625)"/>
      <path id="DejaVuSans-6d" d="M 3328 2828 
Q 3544 3216 3844 3400 
Q 4144 3584 4550 3584 
Q 5097 3584 5394 3201 
Q 5691 2819 5691 2113 
L 5691 0 
L 5113 0 
L 5113 2094 
Q 5113 2597 4934 2840 
Q 4756 3084 4391 3084 
Q 3944 3084 3684 2787 
Q 3425 2491 3425 1978 
L 3425 0 
L 2847 0 
L 2847 2094 
Q 2847 2600 2669 2842 
Q 2491 3084 2119 3084 
Q 1678 3084 1418 2786 
Q 1159 2488 1159 1978 
L 1159 0 
L 581 0 
L 581 3500 
L 1159 3500 
L 1159 2956 
Q 1356 3278 1631 3431 
Q 1906 3584 2284 3584 
Q 2666 3584 2933 3390 
Q 3200 3197 3328 2828 
z
" transform="scale(0.015625)"/>
      <path id="DejaVuSans-20" transform="scale(0.015625)"/>
      <path id="DejaVuSans-43" d="M 4122 4306 
L 4122 3641 
Q 3803 3938 3442 4084 
Q 3081 4231 2675 4231 
Q 1875 4231 1450 3742 
Q 1025 3253 1025 2328 
Q 1025 1406 1450 917 
Q 1875 428 2675 428 
Q 3081 428 3442 575 
Q 3803 722 4122 1019 
L 4122 359 
Q 3791 134 3420 21 
Q 3050 -91 2638 -91 
Q 1578 -91 968 557 
Q 359 1206 359 2328 
Q 359 3453 968 4101 
Q 1578 4750 2638 4750 
Q 3056 4750 3426 4639 
Q 3797 4528 4122 4306 
z
" transform="scale(0.015625)"/>
      <path id="DejaVuSans-70" d="M 1159 525 
L 1159 -1331 
L 581 -1331 
L 581 3500 
L 1159 3500 
L 1159 2969 
Q 1341 3281 1617 3432 
Q 1894 3584 2278 3584 
Q 2916 3584 3314 3078 
Q 3713 2572 3713 1747 
Q 3713 922 3314 415 
Q 2916 -91 2278 -91 
Q 1894 -91 1617 61 
Q 1341 213 1159 525 
z
M 3116 1747 
Q 3116 2381 2855 2742 
Q 2594 3103 2138 3103 
Q 1681 3103 1420 2742 
Q 1159 2381 1159 1747 
Q 1159 1113 1420 752 
Q 1681 391 2138 391 
Q 2594 391 2855 752 
Q 3116 1113 3116 1747 
z
" transform="scale(0.015625)"/>
      <path id="DejaVuSans-75" d="M 544 1381 
L 544 3500 
L 1119 3500 
L 1119 1403 
Q 1119 906 1312 657 
Q 1506 409 1894 409 
Q 2359 409 2629 706 
Q 2900 1003 2900 1516 
L 2900 3500 
L 3475 3500 
L 3475 0 
L 2900 0 
L 2900 538 
Q 2691 219 2414 64 
Q 2138 -91 1772 -91 
Q 1169 -91 856 284 
Q 544 659 544 1381 
z
M 1991 3584 
L 1991 3584 
z
" transform="scale(0.015625)"/>
      <path id="DejaVuSans-64" d="M 2906 2969 
L 2906 4863 
L 3481 4863 
L 3481 0 
L 2906 0 
L 2906 525 
Q 2725 213 2448 61 
Q 2172 -91 1784 -91 
Q 1150 -91 751 415 
Q 353 922 353 1747 
Q 353 2572 751 3078 
Q 1150 3584 1784 3584 
Q 2172 3584 2448 3432 
Q 2725 3281 2906 2969 
z
M 947 1747 
Q 947 1113 1208 752 
Q 1469 391 1925 391 
Q 2381 391 2643 752 
Q 2906 1113 2906 1747 
Q 2906 2381 2643 2742 
Q 2381 3103 1925 3103 
Q 1469 3103 1208 2742 
Q 947 2381 947 1747 
z
" transform="scale(0.015625)"/>
      <path id="DejaVuSans-47" d="M 3809 666 
L 3809 1919 
L 2778 1919 
L 2778 2438 
L 4434 2438 
L 4434 434 
Q 4069 175 3628 42 
Q 3188 -91 2688 -91 
Q 1594 -91 976 548 
Q 359 1188 359 2328 
Q 359 3472 976 4111 
Q 1594 4750 2688 4750 
Q 3144 4750 3555 4637 
Q 3966 4525 4313 4306 
L 4313 3634 
Q 3963 3931 3569 4081 
Q 3175 4231 2741 4231 
Q 1884 4231 1454 3753 
Q 1025 3275 1025 2328 
Q 1025 1384 1454 906 
Q 1884 428 2741 428 
Q 3075 428 3337 486 
Q 3600 544 3809 666 
z
" transform="scale(0.015625)"/>
      <path id="DejaVuSans-68" d="M 3513 2113 
L 3513 0 
L 2938 0 
L 2938 2094 
Q 2938 2591 2744 2837 
Q 2550 3084 2163 3084 
Q 1697 3084 1428 2787 
Q 1159 2491 1159 1978 
L 1159 0 
L 581 0 
L 581 4863 
L 1159 4863 
L 1159 2956 
Q 1366 3272 1645 3428 
Q 1925 3584 2291 3584 
Q 2894 3584 3203 3211 
Q 3513 2838 3513 2113 
z
" transform="scale(0.015625)"/>
      <path id="DejaVuSans-77" d="M 269 3500 
L 844 3500 
L 1563 769 
L 2278 3500 
L 2956 3500 
L 3675 769 
L 4391 3500 
L 4966 3500 
L 4050 0 
L 3372 0 
L 2619 2869 
L 1863 0 
L 1184 0 
L 269 3500 
z
" transform="scale(0.015625)"/>
      <path id="DejaVuSans-78" d="M 3513 3500 
L 2247 1797 
L 3578 0 
L 2900 0 
L 1881 1375 
L 863 0 
L 184 0 
L 1544 1831 
L 300 3500 
L 978 3500 
L 1906 2253 
L 2834 3500 
L 3513 3500 
z
" transform="scale(0.015625)"/>
      <path id="DejaVuSans-79" d="M 2059 -325 
Q 1816 -950 1584 -1140 
Q 1353 -1331 966 -1331 
L 506 -1331 
L 506 -850 
L 844 -850 
Q 1081 -850 1212 -737 
Q 1344 -625 1503 -206 
L 1606 56 
L 191 3500 
L 800 3500 
L 1894 763 
L 2988 3500 
L 3597 3500 
L 2059 -325 
z
" transform="scale(0.015625)"/>
      <path id="DejaVuSans-71" d="M 947 1747 
Q 947 1113 1208 752 
Q 1469 391 1925 391 
Q 2381 391 2643 752 
Q 2906 1113 2906 1747 
Q 2906 2381 2643 2742 
Q 2381 3103 1925 3103 
Q 1469 3103 1208 2742 
Q 947 2381 947 1747 
z
M 2906 525 
Q 2725 213 2448 61 
Q 2172 -91 1784 -91 
Q 1150 -91 751 415 
Q 353 922 353 1747 
Q 353 2572 751 3078 
Q 1150 3584 1784 3584 
Q 2172 3584 2448 3432 
Q 2725 3281 2906 2969 
L 2906 3500 
L 3481 3500 
L 3481 -1331 
L 2906 -1331 
L 2906 525 
z
" transform="scale(0.015625)"/>
     </defs>
     <use xlink:href="#DejaVuSans-48"/>
     <use xlink:href="#DejaVuSans-69" x="75.195312"/>
     <use xlink:href="#DejaVuSans-73" x="102.978516"/>
     <use xlink:href="#DejaVuSans-74" x="155.078125"/>
     <use xlink:href="#DejaVuSans-6f" x="194.287109"/>
     <use xlink:href="#DejaVuSans-67" x="255.46875"/>
     <use xlink:href="#DejaVuSans-72" x="318.945312"/>
     <use xlink:href="#DejaVuSans-61" x="360.058594"/>
     <use xlink:href="#DejaVuSans-6d" x="421.337891"/>
     <use xlink:href="#DejaVuSans-20" x="518.75"/>
     <use xlink:href="#DejaVuSans-43" x="550.537109"/>
     <use xlink:href="#DejaVuSans-6f" x="620.361328"/>
     <use xlink:href="#DejaVuSans-6d" x="681.542969"/>
     <use xlink:href="#DejaVuSans-70" x="778.955078"/>
     <use xlink:href="#DejaVuSans-6f" x="842.431641"/>
     <use xlink:href="#DejaVuSans-75" x="903.613281"/>
     <use xlink:href="#DejaVuSans-6e" x="966.992188"/>
     <use xlink:href="#DejaVuSans-64" x="1030.371094"/>
     <use xlink:href="#DejaVuSans-20" x="1093.847656"/>
     <use xlink:href="#DejaVuSans-47" x="1125.634766"/>
     <use xlink:href="#DejaVuSans-72" x="1203.125"/>
     <use xlink:href="#DejaVuSans-61" x="1244.238281"/>
     <use xlink:href="#DejaVuSans-70" x="1305.517578"/>
     <use xlink:href="#DejaVuSans-68" x="1368.994141"/>
     <use xlink:href="#DejaVuSans-20" x="1432.373047"/>
     <use xlink:href="#DejaVuSans-77" x="1464.160156"/>
     <use xlink:href="#DejaVuSans-68" x="1545.947266"/>
     <use xlink:href="#DejaVuSans-65" x="1609.326172"/>
     <use xlink:href="#DejaVuSans-6e" x="1670.849609"/>
     <use xlink:href="#DejaVuSans-20" x="1734.228516"/>
     <use xlink:href="#DejaVuSans-70" x="1766.015625"/>
     <use xlink:href="#DejaVuSans-69" x="1829.492188"/>
     <use xlink:href="#DejaVuSans-78" x="1857.275391"/>
     <use xlink:href="#DejaVuSans-65" x="1913.330078"/>
     <use xlink:href="#DejaVuSans-6c" x="1974.853516"/>
     <use xlink:href="#DejaVuSans-20" x="2002.636719"/>
     <use xlink:href="#DejaVuSans-70" x="2034.423828"/>
     <use xlink:href="#DejaVuSans-72" x="2097.900391"/>
     <use xlink:href="#DejaVuSans-6f" x="2136.763672"/>
     <use xlink:href="#DejaVuSans-62" x="2197.945312"/>
     <use xlink:href="#DejaVuSans-61" x="2261.421875"/>
     <use xlink:href="#DejaVuSans-62" x="2322.701172"/>
     <use xlink:href="#DejaVuSans-69" x="2386.177734"/>
     <use xlink:href="#DejaVuSans-6c" x="2413.960938"/>
     <use xlink:href="#DejaVuSans-69" x="2441.744141"/>
     <use xlink:href="#DejaVuSans-74" x="2469.527344"/>
     <use xlink:href="#DejaVuSans-79" x="2508.736328"/>
     <use xlink:href="#DejaVuSans-20" x="2567.916016"/>
     <use xlink:href="#DejaVuSans-65" x="2599.703125"/>
     <use xlink:href="#DejaVuSans-71" x="2661.226562"/>
     <use xlink:href="#DejaVuSans-75" x="2724.703125"/>
     <use xlink:href="#DejaVuSans-61" x="2788.082031"/>
     <use xlink:href="#DejaVuSans-6c" x="2849.361328"/>
     <use xlink:href="#DejaVuSans-73" x="2877.144531"/>
     <use xlink:href="#DejaVuSans-30" x="2929.244141"/>
    </g>
   </g>
   <g id="legend_1">
    <g id="patch_87">
     <path d="M 61 189.34125 
L 125.670312 189.34125 
Q 127.670312 189.34125 127.670312 187.34125 
L 127.670312 41.56 
Q 127.670312 39.56 125.670312 39.56 
L 61 39.56 
Q 59 39.56 59 41.56 
L 59 187.34125 
Q 59 189.34125 61 189.34125 
z
" style="fill: #ffffff; opacity: 0.8; stroke: #cccccc; stroke-linejoin: miter"/>
    </g>
    <g id="patch_88">
     <path d="M 63 51.158437 
L 83 51.158437 
L 83 44.158437 
L 63 44.158437 
z
" style="fill: #1f77b4; opacity: 0.5"/>
    </g>
    <g id="text_17">
     <!-- Class0 -->
     <g transform="translate(91 51.158437)scale(0.1 -0.1)">
      <use xlink:href="#DejaVuSans-43"/>
      <use xlink:href="#DejaVuSans-6c" x="69.824219"/>
      <use xlink:href="#DejaVuSans-61" x="97.607422"/>
      <use xlink:href="#DejaVuSans-73" x="158.886719"/>
      <use xlink:href="#DejaVuSans-73" x="210.986328"/>
      <use xlink:href="#DejaVuSans-30" x="263.085938"/>
     </g>
    </g>
    <g id="patch_89">
     <path d="M 63 65.836563 
L 83 65.836563 
L 83 58.836563 
L 63 58.836563 
z
" style="fill: #ff7f0e; opacity: 0.5"/>
    </g>
    <g id="text_18">
     <!-- Class1 -->
     <g transform="translate(91 65.836563)scale(0.1 -0.1)">
      <use xlink:href="#DejaVuSans-43"/>
      <use xlink:href="#DejaVuSans-6c" x="69.824219"/>
      <use xlink:href="#DejaVuSans-61" x="97.607422"/>
      <use xlink:href="#DejaVuSans-73" x="158.886719"/>
      <use xlink:href="#DejaVuSans-73" x="210.986328"/>
      <use xlink:href="#DejaVuSans-31" x="263.085938"/>
     </g>
    </g>
    <g id="patch_90">
     <path d="M 63 80.514688 
L 83 80.514688 
L 83 73.514688 
L 63 73.514688 
z
" style="fill: #2ca02c; opacity: 0.5"/>
    </g>
    <g id="text_19">
     <!-- Class2 -->
     <g transform="translate(91 80.514688)scale(0.1 -0.1)">
      <use xlink:href="#DejaVuSans-43"/>
      <use xlink:href="#DejaVuSans-6c" x="69.824219"/>
      <use xlink:href="#DejaVuSans-61" x="97.607422"/>
      <use xlink:href="#DejaVuSans-73" x="158.886719"/>
      <use xlink:href="#DejaVuSans-73" x="210.986328"/>
      <use xlink:href="#DejaVuSans-32" x="263.085938"/>
     </g>
    </g>
    <g id="patch_91">
     <path d="M 63 95.192813 
L 83 95.192813 
L 83 88.192813 
L 63 88.192813 
z
" style="fill: #d62728; opacity: 0.5"/>
    </g>
    <g id="text_20">
     <!-- Class3 -->
     <g transform="translate(91 95.192813)scale(0.1 -0.1)">
      <use xlink:href="#DejaVuSans-43"/>
      <use xlink:href="#DejaVuSans-6c" x="69.824219"/>
      <use xlink:href="#DejaVuSans-61" x="97.607422"/>
      <use xlink:href="#DejaVuSans-73" x="158.886719"/>
      <use xlink:href="#DejaVuSans-73" x="210.986328"/>
      <use xlink:href="#DejaVuSans-33" x="263.085938"/>
     </g>
    </g>
    <g id="patch_92">
     <path d="M 63 109.870938 
L 83 109.870938 
L 83 102.870938 
L 63 102.870938 
z
" style="fill: #9467bd; opacity: 0.5"/>
    </g>
    <g id="text_21">
     <!-- Class4 -->
     <g transform="translate(91 109.870938)scale(0.1 -0.1)">
      <use xlink:href="#DejaVuSans-43"/>
      <use xlink:href="#DejaVuSans-6c" x="69.824219"/>
      <use xlink:href="#DejaVuSans-61" x="97.607422"/>
      <use xlink:href="#DejaVuSans-73" x="158.886719"/>
      <use xlink:href="#DejaVuSans-73" x="210.986328"/>
      <use xlink:href="#DejaVuSans-34" x="263.085938"/>
     </g>
    </g>
    <g id="patch_93">
     <path d="M 63 124.549062 
L 83 124.549062 
L 83 117.549062 
L 63 117.549062 
z
" style="fill: #8c564b; opacity: 0.5"/>
    </g>
    <g id="text_22">
     <!-- Class5 -->
     <g transform="translate(91 124.549062)scale(0.1 -0.1)">
      <use xlink:href="#DejaVuSans-43"/>
      <use xlink:href="#DejaVuSans-6c" x="69.824219"/>
      <use xlink:href="#DejaVuSans-61" x="97.607422"/>
      <use xlink:href="#DejaVuSans-73" x="158.886719"/>
      <use xlink:href="#DejaVuSans-73" x="210.986328"/>
      <use xlink:href="#DejaVuSans-35" x="263.085938"/>
     </g>
    </g>
    <g id="patch_94">
     <path d="M 63 139.227188 
L 83 139.227188 
L 83 132.227188 
L 63 132.227188 
z
" style="fill: #e377c2; opacity: 0.5"/>
    </g>
    <g id="text_23">
     <!-- Class6 -->
     <g transform="translate(91 139.227188)scale(0.1 -0.1)">
      <use xlink:href="#DejaVuSans-43"/>
      <use xlink:href="#DejaVuSans-6c" x="69.824219"/>
      <use xlink:href="#DejaVuSans-61" x="97.607422"/>
      <use xlink:href="#DejaVuSans-73" x="158.886719"/>
      <use xlink:href="#DejaVuSans-73" x="210.986328"/>
      <use xlink:href="#DejaVuSans-36" x="263.085938"/>
     </g>
    </g>
    <g id="patch_95">
     <path d="M 63 153.905312 
L 83 153.905312 
L 83 146.905312 
L 63 146.905312 
z
" style="fill: #7f7f7f; opacity: 0.5"/>
    </g>
    <g id="text_24">
     <!-- Class7 -->
     <g transform="translate(91 153.905312)scale(0.1 -0.1)">
      <defs>
       <path id="DejaVuSans-37" d="M 525 4666 
L 3525 4666 
L 3525 4397 
L 1831 0 
L 1172 0 
L 2766 4134 
L 525 4134 
L 525 4666 
z
" transform="scale(0.015625)"/>
      </defs>
      <use xlink:href="#DejaVuSans-43"/>
      <use xlink:href="#DejaVuSans-6c" x="69.824219"/>
      <use xlink:href="#DejaVuSans-61" x="97.607422"/>
      <use xlink:href="#DejaVuSans-73" x="158.886719"/>
      <use xlink:href="#DejaVuSans-73" x="210.986328"/>
      <use xlink:href="#DejaVuSans-37" x="263.085938"/>
     </g>
    </g>
    <g id="patch_96">
     <path d="M 63 168.583438 
L 83 168.583438 
L 83 161.583438 
L 63 161.583438 
z
" style="fill: #bcbd22; opacity: 0.5"/>
    </g>
    <g id="text_25">
     <!-- Class8 -->
     <g transform="translate(91 168.583438)scale(0.1 -0.1)">
      <use xlink:href="#DejaVuSans-43"/>
      <use xlink:href="#DejaVuSans-6c" x="69.824219"/>
      <use xlink:href="#DejaVuSans-61" x="97.607422"/>
      <use xlink:href="#DejaVuSans-73" x="158.886719"/>
      <use xlink:href="#DejaVuSans-73" x="210.986328"/>
      <use xlink:href="#DejaVuSans-38" x="263.085938"/>
     </g>
    </g>
    <g id="patch_97">
     <path d="M 63 183.261562 
L 83 183.261562 
L 83 176.261562 
L 63 176.261562 
z
" style="fill: #17becf; opacity: 0.5"/>
    </g>
    <g id="text_26">
     <!-- Class9 -->
     <g transform="translate(91 183.261562)scale(0.1 -0.1)">
      <defs>
       <path id="DejaVuSans-39" d="M 703 97 
L 703 672 
Q 941 559 1184 500 
Q 1428 441 1663 441 
Q 2288 441 2617 861 
Q 2947 1281 2994 2138 
Q 2813 1869 2534 1725 
Q 2256 1581 1919 1581 
Q 1219 1581 811 2004 
Q 403 2428 403 3163 
Q 403 3881 828 4315 
Q 1253 4750 1959 4750 
Q 2769 4750 3195 4129 
Q 3622 3509 3622 2328 
Q 3622 1225 3098 567 
Q 2575 -91 1691 -91 
Q 1453 -91 1209 -44 
Q 966 3 703 97 
z
M 1959 2075 
Q 2384 2075 2632 2365 
Q 2881 2656 2881 3163 
Q 2881 3666 2632 3958 
Q 2384 4250 1959 4250 
Q 1534 4250 1286 3958 
Q 1038 3666 1038 3163 
Q 1038 2656 1286 2365 
Q 1534 2075 1959 2075 
z
" transform="scale(0.015625)"/>
      </defs>
      <use xlink:href="#DejaVuSans-43"/>
      <use xlink:href="#DejaVuSans-6c" x="69.824219"/>
      <use xlink:href="#DejaVuSans-61" x="97.607422"/>
      <use xlink:href="#DejaVuSans-73" x="158.886719"/>
      <use xlink:href="#DejaVuSans-73" x="210.986328"/>
      <use xlink:href="#DejaVuSans-39" x="263.085938"/>
     </g>
    </g>
   </g>
  </g>
 </g>
 <defs>
  <clipPath id="p4a393c9d07">
   <rect x="54" y="34.56" width="334.8" height="217.44"/>
  </clipPath>
 </defs>
</svg>
